<?xml version="1.0" encoding="UTF-8"?>
<svg id="_å¾å±_1" data-name="å¾å±_1" xmlns="http://www.w3.org/2000/svg" version="1.1" viewBox="0 0 1024 1024">
  <!-- Generator: Adobe Illustrator 30.0.0, SVG Export Plug-In . SVG Version: 2.1.1 Build 123)  -->
  <defs>
    <style>
      .st0 {
        fill: #da9917;
      }

      .st1 {
        fill: #fffffe;
      }
    </style>
  </defs>
  <path d="M749.16,320.98c-.98-.83-1.98-1.48-3.02-1.9-7.22-3.02-14.66-6.02-21.91-8.32-6.56-2.08-13.17-3.89-19.82-5.41l-4.62-.75c-.2-.03-.41-.13-.6-.25-1.81-1.27-3.43-2.49-4.83-3.62-4.88-3.92-9.39-7.41-13.56-10.48-4.29-3.16-9.01-6.37-14.16-9.59-3.55-2.25-8.51-5.17-14.9-8.78,0,0-2.85-1.46-8.51-4.4-3.46-1.78-6.34-3.16-8.62-4.15-10.07-4.36-17.98-7.5-23.7-9.42-9.28-3.11-20.01-5.99-32.17-8.64-6.57-1.42-13.51-2.56-20.79-3.46-17.11-2.06-34.51-2.64-50.91-1.9-9.88.44-19.79,1.48-29.74,3.11-3.89.63-10.68,1.75-16.33,3.02-11.15,2.5-22.02,5.35-32.31,9.34l.02-.02c-.19.08-.41,0-.49-.19-.63-1.62-1.23-3.51-1.81-4.97-2.39-5.99-4.2-10.59-5.4-13.81-1.78-4.7-3.76-9.12-5.44-13.46-.02-.03-.02-.06-.02-.08,0-.09.05-.17.14-.2,6.5-2.17,10.32-3.4,11.47-3.7,5.38-1.37,10.76-3.07,15.79-4.28,13.01-3.13,25.61-5.36,37.75-6.72,21.69-2.39,43.54-2.55,65.54-.42,20.68,1.98,40.9,6.17,60.64,12.55,6.4,2.08,12.87,4.42,19.43,7.02,5.02,1.98,10,4.36,14.27,6.29,7.75,3.55,11.97,5.93,20.51,10.62,3.43,1.89,7.53,4.36,12.3,7.42,11.39,7.31,22.63,15.7,33.71,25.13,14.01,11.92,26.96,25.28,38.84,40.07.57.7,2.79,3.68,3.25,4.35h0Z"/>
  <path d="M371.88,302.7s-.08.05-.13.05c-.11,0-.2-.09-.24-.2-1.37-8.87-2.52-17.81-3.44-26.79-.24-2.31-1.4-10.7-3.51-25.17-.02-.06.03-.14.08-.19l6.72-4.09c.14-.09.31-.08.46.02,2.49,1.9,4.56,3.55,6.23,4.94,4.06,3.37,7.5,5.91,11.37,9.12,2.14,1.76,6.64,5.44,13.48,11.04,3.15,2.58,6.02,5.24,8.89,7.61.03.03.05.06.05.11s-.03.09-.06.11l-6.59,3.81c-.2.13-.5.11-.71-.06l-10.04-8.38c-.08-.08-.19-.08-.28-.03l-17.25,10.55c-.11.06-.17.19-.16.31l1.76,12.06c.06.35-.09.69-.38.9l-6.24,4.28ZM372.27,255.84s-.03-.03-.06-.03-.06.03-.06.08v.02c.55,3.27,1.15,6.61,1.81,10.02.82,4.2,1.31,9.64,1.67,13.13,0,0,.02.02.02.03.02.05.08.08.14.06,0-.02.02-.02.02-.02,4.58-3.1,9.26-5.95,14.05-8.56.02,0,.02-.02.02-.02v-.02l-17.59-14.71Z"/>
  <path d="M315.18,284.72h0c-.05-.06-.05-.14.02-.2h0c9.25-7.27,14.49-11.45,22.05-16.99,2.49-1.82,4.99-3.7,7.49-5.65h0c.14-.11.35-.08.46.06l.02.02,3.43,5c.05.06.08.16.08.24,0,.13-.06.25-.17.33l-11.14,8.29c-.08.06-.13.14-.13.24,0,.06.03.13.08.19,3.11,3.73,7.74,9.53,13.87,17.4,2.52,3.22,5.28,6.53,7.68,9.94,1.2,1.68,2.6,3.21,4.01,5.16.03.03.05.08.05.11,0,.06-.03.11-.08.16l-6.09,4.72h0c-.11.08-.25.06-.31-.05h0l-25.47-32.86s-.11-.08-.19-.08c-.05,0-.09.02-.14.05l-10.9,8.45c-.06.05-.14.08-.22.08-.11,0-.2-.05-.27-.13l-4.12-4.47Z"/>
  <path class="st0" d="M704.41,305.34c6.65,1.53,13.28,3.33,19.82,5.41,7.25,2.3,14.69,5.3,21.91,8.32,1.04.42,2.04,1.07,3.02,1.9.5.71,1.07,1.42,1.68,2.14.87.99,1.45,1.7,1.75,2.08,8.68,11.15,16.81,22.93,23.74,35.26,1.95,3.49,3.37,6.01,4.23,7.58,3.73,6.65,7.22,13.75,10.49,21.3,5.98,13.73,11.18,27.76,15.04,42.15,2.88,10.82,5.4,21.75,6.95,32.43.33,2.25.83,6.17,1.51,11.73.55,4.69.94,8.6,1.16,11.77,1.54,21.44,1.23,42.26-.96,62.48-.35,3.26-1.2,8.97-2.52,17.13-.98,5.95-2.09,11.61-3.37,16.99-4.47,18.81-10.55,36.66-18.28,53.56-2.6,5.68-5.62,11.8-9.06,18.36-3.22,6.13-6.65,12.05-10.27,17.71-7.41,11.56-15.54,22.67-24.41,33.31-4.29,5.16-7.46,8.78-9.44,10.82-5.54,5.71-8.86,9.37-13.54,13.76-7.17,6.72-12.6,11.61-16.31,14.69-5.68,4.72-10.99,8.92-15.95,12.61-2.06,1.54-6.09,4.34-12.08,8.4-3.6,2.45-8.93,5.8-16.01,10.07-3.48,2.09-6.39,3.73-8.73,4.88-3.22,1.6-7.83,4.17-11.89,6.09-7.6,3.57-14.8,6.72-21.63,9.44-4.64,1.84-9.67,3.49-14.72,5.21-11.73,3.93-23.74,7.09-36.02,9.45-10.29,1.98-21.03,3.46-32.21,4.45-11.17.99-21.99,1.34-32.48,1.04-9.34-.28-18.67-.88-28-1.81-9.17-.91-18.4-2.38-27.71-4.37-16.04-3.44-31.62-7.97-46.57-13.81-3.54-1.37-6.78-2.6-10.52-4.23-6.75-2.93-14.2-6.53-22.38-10.76-2.93-1.53-5.55-2.97-7.86-4.36-3.1-1.86-6.46-3.6-9.64-5.47l-.63-2.04s-.03-.09-.05-.13c-3.38-7.03-6.23-13.48-8.54-19.38-1.84-4.69-3.89-10.41-6.13-17.18-1.41-5.02-2.08-8.01-2.36-10.97-1.05-10.48-1.73-20.71-3.85-30.83-.31-1.53-1.18-4.55-2.58-9.06-1.48-4.75-3.57-9.48-6.23-14.2-2.6-4.59-7.27-11.51-10.54-17.18-2.26-3.89-3.6-6.23-4.04-7.03-2.23-4.15-4.4-8.53-6.51-13.1-.52-1.12-2.11-4.8-4.75-11.04-1.34-3.15-2.34-5.73-3.02-7.77-1.07-3.24-2.56-7.22-3.57-10.49-2.94-9.45-5.27-18.54-7.02-27.32-1.9-9.63-3.21-19.82-3.92-30.55-.98-14.85-.9-30.5.58-45.54.83-8.53,2.28-17.38,4.33-26.57,1.46-6.54,3.26-13.26,5.36-20.15,5.05-16.52,12.49-32.62,21.19-47.75,1.16-2.03,2.63-4.42,4.37-7.14,1.53-2.38,3.92-6.29,6.04-9.42,4.42-6.48,8.93-12.52,13.51-18.12,3.02-3.68,7.35-8.4,10.26-11.64,5.25-5.87,11.07-11.5,16.47-16.3,5.58-4.94,11.69-10.1,18.09-14.82,10.81-7.97,21.89-14.91,33.27-20.81,3.19-1.67,7.53-3.79,13.01-6.37,4.2-2,8.67-3.85,13.39-5.57,8.21-3,15.41-5.38,21.6-7.14,3.02-.87,8.35-2.15,15.96-3.9,2.85-.64,6.04-1.26,9.59-1.82,5.38-.85,8.6-1.34,9.66-1.48,4.5-.61,10.59-1.13,18.28-1.59,5.99-.36,12.1-.46,18.34-.31,12.1.28,24.19,1.34,36.27,3.15,5.69.87,11.04,1.87,16.04,3.04,9.53,2.23,18.72,4.78,28.31,8.24,5.91,2.14,11.97,4.5,18.2,7.09,1.23.52,3.26,1.2,6.09,2.06,5.63,1.71,11.18,3.13,17.03,3.79,7.57.83,15.02.82,22.78-.11,3.21-.38,6.43-.74,9.66-1.07,3.85-.41,11.92-.61,17.35.8h0ZM353.64,769.74c5.93-6.84,10.49-12.17,15.23-18.94,2.6-3.7,4.5-7.71,5.73-12,1.93-6.76,3.29-13.45,5.51-23.59.88-3.96,1.71-7.47,2.53-10.54,1.65-6.21,2.6-9.7,2.83-10.48,2.86-9.52,5.99-18.64,9.37-27.35.64-1.68,1.79-4.23,3.43-7.66,4.03-8.4,9.72-16.41,16.86-22.56,6.68-5.77,14.16-10.29,22.08-13.98,8.81-4.11,17.93-7.39,27.37-9.88,10.27-2.69,23.58-5.17,31.28-6.65,5.14-.98,9.66-2.03,13.54-3.15,10.82-3.08,19.46-8.42,29.13-15.41,3.84-2.8,7.74-5.9,11.69-9.33,1.97-1.7,3.76-3.73,5.21-5.36.64-.74,1.13-1.54,1.46-2.44.11-.33,0-.69-.3-.88-.03-.03-.11-.03-.25-.03-1.18-.02-2.56.13-4.12.44-8.81,1.76-17.52,2.86-26.82,2.72-5.99-.09-11.5-.66-16.53-1.71-7.74-1.62-15.79-4.5-23.01-7.19-.08-.03-.14-.13-.14-.2,0-.06.03-.13.08-.17,3.74-3.04,7.91-5.52,12.5-7.47,7.19-3.05,14.49-5.24,22.57-7.16,6.29-1.48,13.84-3.32,22.68-5.52,14.06-3.51,27.93-7.86,40.64-13.89,7.03-3.32,13.81-7.71,20.32-13.15,5.13-4.29,10.16-9.11,15.08-14.42,6.7-7.24,12.94-14.71,18.72-22.41,1.15-1.53,2.49-3.19,2.56-4.84.02-.19-.13-.36-.33-.36-2.47-.14-5.57.27-8.26.38-7.96.35-15.92.2-23.88-.41-2.5-.19-4.89-.46-7.17-.79-7.66-1.12-15.35-2.55-21.53-7.27-.03-.03-.06-.08-.06-.14,0-.08.08-.16.16-.16,5.9-.22,12.47-.55,19.74-.99,15.4-.96,30.77-3.55,45.3-8.24,6.84-2.22,13.23-4.95,19.16-8.19,6.17-3.38,11.92-7.58,17.3-12.61,4.29-4.01,8.43-8.27,12.39-12.79,1.89-2.14,3.63-4.22,5.25-6.21,3.3-4.09,5.02-6.2,5.11-6.34,5.68-7.63,10.57-14.12,15.49-21.8,3.11-4.86,5.28-8.29,6.51-10.32,2.45-4,5.52-9.47,9.22-16.44,4.11-7.69,7.88-15.96,11.34-24.8.68-1.75,1.38-4.01,2.09-6.78.61-2.42.85-4.83.71-7.2-.02-.33-.22-.63-.53-.76-2.41-.99-5.22-.9-8.24-.69-4.18.28-9.99.93-17.43,1.97-5.47.75-17.14,2.34-23.34,3.33-10.98,1.71-17.57,2.74-19.79,3.04-2.52.35-5.77.91-9.75,1.67-.91.17-4.17.74-9.77,1.67-7.39,1.24-17.27,3.1-29.65,5.6-17.4,3.51-34.89,8.02-52.19,13.1-10.26,3-21.01,6.79-32.28,11.39-8.53,3.46-16.96,8.51-22.92,15.65-3.08,3.7-5.47,7.03-7.19,9.99-3.55,6.17-5.98,10.38-7.28,12.66-1.02,1.84-2.04,3.46-3.04,4.86-1.76,2.47-2.94,3.98-3.57,4.56-.06.06-.16.11-.25.11-.16,0-.31-.11-.36-.27-.05-.16-.06-.36-.08-.63-.36-6.81.36-13.21,2.17-19.17,1.01-3.3,1.68-5.63,2.03-6.95.09-.33.14-.68.19-1.02v-.03c0-.19-.16-.33-.33-.33h-.08c-1.67.36-3.33.93-5.02,1.71-2.71,1.27-5.66,2.85-8.89,4.72-5.74,3.33-11.64,7.19-17.7,11.53-5.9,4.25-11.37,8.32-16.44,12.24-19.36,14.96-36.37,32.12-50.99,51.45-4.4,5.82-7.82,10.79-10.26,14.93-2.19,3.74-4,7.22-5.41,10.44-2.09,4.73-3.54,9.74-4.37,15.02-1.29,8.13-1.84,15.92-1.92,24.65-.03,2.6-.09,6.51-.22,11.75-.03,1.93-.17,3.66-.39,5.21,0,.05-.02.08-.03.13-.11.28-.44.44-.72.33-.05-.02-.08-.05-.11-.06-.83-.53-1.71-1.46-2.19-2.31-1.59-2.8-2.8-5.68-3.63-8.65-.9-3.21-2.06-8.32-3.52-15.34-.25-1.27-.58-2.34-.94-3.21-.06-.14-.2-.22-.36-.22-.13,0-.25.05-.31.16-1.34,1.79-2.49,4.06-3.35,6.32-1.95,5.14-3.4,9.91-4.31,14.28-5.21,24.95-6.76,50.3-4.66,76.02.5,6.15,1.43,12.13,2.78,17.92.5,2.17,1.1,4.09,1.76,5.76.05.13.19.2.31.2s.24-.05.3-.14c.57-.85,1.13-1.67,1.53-2.55,5.46-12.47,8.87-20.18,10.24-23.09,3.68-7.88,6.2-12.57,10.98-21.64.53-.99,2.42-4.33,5.66-10,3.9-6.86,7.05-11.69,11.81-19.32.72-1.18,1.59-2.47,2.6-3.92,1.9-2.69,3.87-5.54,5.9-8.53,3.11-4.58,7.86-10.95,14.27-19.13.2-.25,2.22-2.75,6.04-7.49,5.05-6.24,11.14-13.18,14.99-17.41,1.87-2.06,4.94-5.06,7.2-7.53,3.46-3.77,6.89-7.27,10.29-10.46,2.85-2.66,6.31-6.53,8.68-8.67,1.29-1.15,2.91-2.64,4.86-4.48,2.78-2.61,5.88-5.33,9.28-8.16,7.16-5.98,10.62-9.06,16.45-13.46,10.7-8.05,18.91-14.01,24.65-17.88,7.82-5.24,14.5-9.53,20.07-12.85.85-.52,1.35-.82,1.54-.93,2.25-1.37,4.78-2.88,7.6-4.55,2.45-1.46,5.02-2.91,7.69-4.36,6.72-3.62,10.76-5.77,12.13-6.48,4.7-2.45,9.44-4.84,14.2-7.2,4.77-2.38,10.3-4.64,16.11-7.13,1.59-.69,3.13-1.18,4.62-1.46h.08c.11.02.19.13.17.24,0,.02-.02.05-.02.06-.09.17-.24.33-.44.49-.71.53-1.95,1.35-3.76,2.49-4.81,3.02-12.06,7.5-21.74,13.45-3.05,1.87-9.7,6.24-19.96,13.12-6.84,4.58-15.16,10.52-20.68,14.63-11.83,8.78-23.75,18.18-34.48,27.6-2.58,2.25-4.81,4.4-7.68,6.92-2.22,1.97-5.14,4.73-8.79,8.3-3.85,3.79-6.7,6.65-8.53,8.59-4.55,4.8-8.3,8.46-12.08,12.87-3.37,3.92-5.21,6.04-5.52,6.37-2.91,3.1-5.63,6.72-8.71,10.4-3.77,4.47-8.62,10.57-11.56,14.5-2.99,3.98-7.44,10.07-13.39,18.28-2.69,3.7-4.94,7.28-8.37,12.41-10.98,16.39-21.16,33.58-30.55,51.58-1.2,2.3-2.04,3.98-2.55,5.03-2.01,4.33-4.11,8.29-6.13,12.71-2.77,6.06-5.76,12.94-8.97,20.7-2.91,7.03-6.18,16.04-8.32,21.93-2.14,5.96-4.61,13.45-7.36,22.46-4.37,14.27-7.63,29.4-9.8,45.41-.85,6.29-1.42,13.32-1.67,21.09-.02.14-.06,3.19-.17,9.15,0,.02.02.03.03.03h.02Z"/>
  <path d="M313.16,329.79l12.63,12.61c.09.11.16.24.16.38s-.06.28-.16.38l-5.3,5.3s-.06.03-.09.03-.06-.02-.08-.03c-3.96-4.03-6.06-6.29-9.31-9.42-2.96-2.85-5.06-5.11-7.99-7.91-.39-.38-1.68-1.67-3.87-3.85-5.05-5.06-9.55-9.44-13.46-13.13h0c-.11-.09-.11-.27-.02-.38h0c.93-.91,4.64-4.7,11.15-11.37.79-.82,1.9-1.81,3.33-2.97,3.68-2.96,7.22-4.28,12.05-3.43,4.62.82,8.19,3.41,10.71,7.77,3.54,6.15,1.97,12.71-2.39,18.03-1.6,1.97-3.51,3.89-5.71,5.76-.08.06-.63.68-1.67,1.82-.05.05-.08.13-.08.2s.03.16.09.22h0ZM295.78,312.74c2.38,1.92,4.39,4.14,6.72,6.31,1.68,1.57,3.68,3.66,5.98,6.29h0c.11.14.31.14.44.03h0c2.56-2.33,4.77-4.75,6.62-7.28.96-1.32,1.57-2.44,1.81-3.33,1.02-3.93-1.27-8.12-4.61-10.15-3.35-2.04-6.65-1.7-9.91,1.05-2.44,2.08-4.55,4.61-7.06,6.89h0s-.05.14,0,.19h.02Z"/>
  <path class="st1" d="M353.64,769.74h-.02s-.03-.02-.03-.03c.11-5.96.16-9.01.17-9.15.25-7.77.82-14.8,1.67-21.09,2.17-16.01,5.43-31.14,9.8-45.41,2.75-9.01,5.22-16.5,7.36-22.46,2.14-5.88,5.41-14.9,8.32-21.93,3.21-7.75,6.2-14.64,8.97-20.7,2.03-4.42,4.12-8.38,6.13-12.71.5-1.05,1.35-2.74,2.55-5.03,9.39-17.99,19.57-35.19,30.55-51.58,3.43-5.13,5.68-8.71,8.37-12.41,5.95-8.21,10.4-14.3,13.39-18.28,2.94-3.93,7.79-10.04,11.56-14.5,3.08-3.68,5.8-7.3,8.71-10.4.31-.33,2.15-2.45,5.52-6.37,3.77-4.4,7.53-8.07,12.08-12.87,1.82-1.93,4.67-4.8,8.53-8.59,3.65-3.57,6.57-6.34,8.79-8.3,2.86-2.52,5.1-4.67,7.68-6.92,10.73-9.42,22.65-18.83,34.48-27.6,5.52-4.11,13.84-10.05,20.68-14.63,10.26-6.87,16.91-11.25,19.96-13.12,9.67-5.95,16.92-10.43,21.74-13.45,1.81-1.13,3.05-1.95,3.76-2.49.2-.16.35-.31.44-.49,0-.02.02-.05.02-.06.02-.11-.06-.22-.17-.24h-.08c-1.49.28-3.04.77-4.62,1.46-5.8,2.49-11.34,4.75-16.11,7.13-4.77,2.36-9.5,4.75-14.2,7.2-1.37.71-5.41,2.86-12.13,6.48-2.67,1.45-5.24,2.89-7.69,4.36-2.82,1.67-5.35,3.18-7.6,4.55-.19.11-.69.41-1.54.93-5.57,3.32-12.25,7.61-20.07,12.85-5.74,3.87-13.95,9.83-24.65,17.88-5.84,4.4-9.3,7.49-16.45,13.46-3.4,2.83-6.5,5.55-9.28,8.16-1.95,1.84-3.57,3.33-4.86,4.48-2.38,2.14-5.84,6.01-8.68,8.67-3.4,3.19-6.83,6.68-10.29,10.46-2.26,2.47-5.33,5.47-7.2,7.53-3.85,4.23-9.94,11.17-14.99,17.41-3.82,4.73-5.84,7.24-6.04,7.49-6.4,8.18-11.15,14.55-14.27,19.13-2.03,2.99-4,5.84-5.9,8.53-1.01,1.45-1.87,2.74-2.6,3.92-4.77,7.63-7.91,12.46-11.81,19.32-3.24,5.68-5.13,9.01-5.66,10-4.78,9.08-7.3,13.76-10.98,21.64-1.37,2.91-4.78,10.62-10.24,23.09-.39.88-.96,1.7-1.53,2.55-.06.09-.17.14-.3.14s-.27-.08-.31-.2c-.66-1.67-1.26-3.59-1.76-5.76-1.35-5.79-2.28-11.77-2.78-17.92-2.11-25.72-.55-51.07,4.66-76.02.91-4.37,2.36-9.14,4.31-14.28.87-2.26,2.01-4.53,3.35-6.32.06-.11.19-.16.31-.16.16,0,.3.08.36.22.36.87.69,1.93.94,3.21,1.46,7.02,2.63,12.13,3.52,15.34.83,2.97,2.04,5.85,3.63,8.65.47.85,1.35,1.78,2.19,2.31.03.02.06.05.11.06.28.11.61-.05.72-.33.02-.05.03-.08.03-.13.22-1.53.36-3.27.39-5.21.13-5.24.19-9.15.22-11.75.08-8.73.63-16.52,1.92-24.65.83-5.28,2.28-10.29,4.37-15.02,1.42-3.22,3.22-6.7,5.41-10.44,2.44-4.14,5.85-9.11,10.26-14.93,14.63-19.33,31.63-36.49,50.99-51.45,5.06-3.92,10.54-7.99,16.44-12.24,6.06-4.34,11.95-8.19,17.7-11.53,3.22-1.87,6.18-3.44,8.89-4.72,1.68-.79,3.35-1.35,5.02-1.71h.08c.17,0,.33.14.33.33v.03c-.05.35-.09.69-.19,1.02-.35,1.32-1.02,3.65-2.03,6.95-1.81,5.96-2.53,12.36-2.17,19.17.02.27.03.47.08.63.05.16.2.27.36.27.09,0,.19-.05.25-.11.63-.58,1.81-2.09,3.57-4.56.99-1.4,2.01-3.02,3.04-4.86,1.31-2.28,3.73-6.5,7.28-12.66,1.71-2.96,4.11-6.29,7.19-9.99,5.96-7.14,14.39-12.19,22.92-15.65,11.26-4.59,22.02-8.38,32.28-11.39,17.3-5.08,34.79-9.59,52.19-13.1,12.38-2.5,22.26-4.36,29.65-5.6,5.6-.93,8.86-1.49,9.77-1.67,3.98-.75,7.24-1.32,9.75-1.67,2.22-.3,8.81-1.32,19.79-3.04,6.2-.99,17.87-2.58,23.34-3.33,7.44-1.04,13.24-1.68,17.43-1.97,3.02-.2,5.84-.3,8.24.69.31.13.52.42.53.77.14,2.36-.09,4.77-.71,7.19-.71,2.77-1.42,5.03-2.09,6.78-3.46,8.84-7.24,17.11-11.34,24.8-3.7,6.97-6.76,12.44-9.22,16.44-1.23,2.03-3.4,5.46-6.51,10.32-4.92,7.68-9.81,14.17-15.49,21.8-.09.14-1.81,2.25-5.11,6.34-1.62,2-3.37,4.07-5.25,6.21-3.96,4.51-8.1,8.78-12.39,12.79-5.38,5.03-11.14,9.23-17.3,12.61-5.93,3.24-12.32,5.98-19.16,8.19-14.53,4.69-29.9,7.28-45.3,8.24-7.27.44-13.84.77-19.74.99-.08,0-.16.08-.16.16,0,.06.03.11.06.14,6.18,4.72,13.87,6.15,21.53,7.27,2.28.33,4.67.6,7.17.79,7.96.61,15.92.75,23.88.41,2.69-.11,5.79-.52,8.26-.38.2,0,.35.17.33.36-.08,1.65-1.42,3.32-2.56,4.84-5.77,7.71-12.02,15.18-18.72,22.41-4.92,5.32-9.96,10.13-15.08,14.42-6.51,5.44-13.29,9.83-20.32,13.15-12.71,6.02-26.58,10.38-40.64,13.89-8.84,2.2-16.39,4.04-22.68,5.52-8.08,1.92-15.38,4.11-22.57,7.16-4.59,1.95-8.76,4.44-12.5,7.47-.05.05-.08.11-.08.17,0,.08.06.17.14.2,7.22,2.69,15.27,5.57,23.01,7.19,5.03,1.05,10.54,1.62,16.53,1.71,9.3.14,18.01-.96,26.82-2.72,1.56-.31,2.94-.46,4.12-.44.14,0,.22,0,.25.03.3.19.41.55.3.88-.33.9-.82,1.7-1.46,2.44-1.45,1.64-3.24,3.66-5.21,5.36-3.95,3.43-7.85,6.53-11.69,9.33-9.67,7-18.31,12.33-29.13,15.41-3.89,1.12-8.4,2.17-13.54,3.15-7.71,1.48-21.01,3.96-31.28,6.65-9.44,2.49-18.56,5.77-27.37,9.88-7.93,3.7-15.4,8.21-22.08,13.98-7.14,6.15-12.83,14.16-16.86,22.56-1.64,3.43-2.78,5.98-3.43,7.66-3.38,8.71-6.51,17.84-9.37,27.35-.24.77-1.18,4.26-2.83,10.48-.82,3.07-1.65,6.57-2.53,10.54-2.22,10.15-3.57,16.83-5.51,23.59-1.23,4.29-3.13,8.3-5.73,12-4.73,6.76-9.3,12.1-15.23,18.94h0Z"/>
  <path d="M308.6,362.82s-.05.03-.06.03-.05,0-.05-.02l-37.7-30.73s-.05-.13.02-.19l4.89-6.01h0s.13-.08.17-.03l37.69,30.73s.03.05.03.06,0,.03-.02.05l-4.97,6.1Z"/>
  <path d="M279.36,368.04c.31-.09.71-.2,1.04-.2,7.52-.08,15.63-.13,24.36-.14h0c.13,0,.24.09.24.24,0,.05-.02.09-.05.14l-5.32,6.79c-.14.17-.36.28-.58.27l-22.24-.27c-.38-.02-.74.16-.98.46l-3.71,4.77s-.05.06-.05.11c0,.06.03.11.08.16,3.4,2.55,7.24,4.66,10.49,6.86,3.51,2.41,5.6,3.87,6.28,4.4.05.05.09.13.09.2,0,.05-.02.09-.05.14l-3.65,5.52c-.16.24-.46.31-.72.19-4.72-2.31-9.26-5.98-13.09-8.29-7.52-4.55-15.52-10.18-22.23-14.16-1.71-1.02-3.63-2.26-5.76-3.73-.06-.05-.11-.11-.11-.19,0-.05.02-.08.05-.13,3.4-5.54,7.05-10.85,10.93-15.95,2.25-2.93,5-4.73,8.26-5.44,6.17-1.34,12.21,1.21,15.35,6.73,1.95,3.44,2,7.44,1.15,11.31v.05c0,.08.08.16.17.16h.03ZM253.43,368.02l13.64,9.34s.05.02.06.02c.03,0,.08-.02.09-.05l4.67-6.83-.05.06c2.67-3.81,2.03-8.89-1.45-11.31l-1.23-.85.08.06c-3.48-2.44-8.46-1.32-11.14,2.5l-4.72,6.89s-.02.05-.02.06c0,.03.02.08.05.09h0Z"/>
  <path d="M270.52,403.1c0-.16.11-.3.27-.31,2-.28,3.9-.36,5.68-.28.14.02.27.13.31.27.83,3.33.96,6.62.39,9.85-.63,3.59-2.66,7.79-4.91,11.09-2.93,4.31-6.72,7.44-11.7,8.9-4.15,1.23-8.21,1.4-12.14.53-3.63-.8-7.19-2.34-10.66-4.62-5.6-3.65-9-8.65-10.22-14.99-1.59-8.34,1.57-16.78,7.35-23.09,2.33-2.55,5.25-4.06,8.73-4.55.27-.03.52.11.61.36l1.93,5.69h0c.03.11-.03.22-.14.25h0c-4.99,1.4-8.46,4.48-10.4,9.23-2.2,5.36-1.78,10.3,1.29,14.82,3.76,5.57,10.41,9.66,17.16,9.69,9.48.06,14.94-6.91,16.48-15.62.36-2.08.16-4.5-.03-7.22h0Z"/>
  <path d="M245.1,470.4s0-.02-.02-.02c-.05-.08-.03-.17.05-.22t.02-.02c4.44-2.64,7.68-6.37,8.71-11.5,1.02-4.92-1.76-9.61-7.19-9.47-2.6.08-4.66,1.54-6.29,3.43-.28.31-2,2.34-5.16,6.07-.99,1.15-2.28,2.33-3.9,3.55-3.41,2.58-7.09,3.15-11.06,1.68-7.53-2.77-10.16-9.92-8.4-17.4,1.04-4.39,3.62-9.04,7.17-11.89,1.18-.94,2.34-1.37,3.73-1.89.09-.03.19.02.24.09.99,1.64,1.68,2.8,2.06,3.48.49.87.75,1.49.82,1.89.02.17-.08.33-.22.39-1.92.8-3.57,2.11-4.94,3.9-2.72,3.55-4.07,7.8-1.05,11.77,1.97,2.58,5.35,2.67,7.85.85,1.07-.77,2.01-1.64,2.85-2.61,2.17-2.53,3.96-4.61,5.36-6.21,3-3.43,7.99-6.02,12.74-5.54,3.77.41,6.81,2.03,9.06,4.88,3.16,3.98,4.17,8.56,3.02,13.75-1.38,6.23-4.48,11.36-9.31,15.4-.22.2-.64.38-1.23.57-.17.05-.36,0-.49-.14l-4.42-4.8Z"/>
  <path d="M337.78,734.32c2.25,6.76,4.29,12.49,6.13,17.18,2.31,5.9,5.16,12.35,8.54,19.38.02.03.03.08.05.13l.63,2.04c-1.24-.69-2.91-1.71-5-3.05-6.32-4.03-10.59-6.87-12.82-8.51-3.08-2.25-5.77-4.23-8.05-5.91-3.71-2.77-6.12-4.61-7.22-5.52-3.1-2.53-6.28-4.92-9.36-7.58-7.75-6.67-15.35-13.98-22.76-21.96-4.11-4.4-7.16-7.77-9.19-10.11-.74-.88-3.49-4.23-8.21-10.1-2.94-3.63-5.57-7.11-7.86-10.41-4.95-7.09-8.18-11.88-9.7-14.31-8.65-13.95-16.08-28.3-22.29-43.07-2.72-6.46-4.97-12.21-6.73-17.22-2.5-7.11-4.23-13.02-6.37-20.81-4.18-15.35-7.02-30.67-8.49-45.99-1.57-16.28-2.08-32.73-1.51-49.34,0-.13.09-.22.22-.22h.02l34.56,2.23c.14.02.24.13.24.27v.02c-.33,6.17-.55,10.68-.64,13.57-.5,13.45-.03,26.96,1.38,40.57.28,2.71,1.15,8.53,2.61,17.44,1.37,8.27,3.32,16.92,5.85,25.94,5.66,20.04,13.43,39.12,23.29,57.25,2.66,4.88,6.4,11.01,11.23,18.4,1.07,1.65,2.45,3.63,4.15,5.99,2.47,3.41,3.9,5.36,4.29,5.9,7,9.19,14.31,17.66,21.94,25.4,4.91,4.99,9.81,9.26,16.08,15.02.87.79,1.98,1.75,3.35,2.85.39.3.66.74.79,1.21l.87,3.33Z"/>
</svg>